HIERARCHY
ROOT joint_Root
{
	OFFSET 0.0 0.0 0.0
	CHANNELS 6 Xposition Yposition Zposition Zrotation Xrotation Yrotation 
	JOINT Hips
	{
		OFFSET -17.1583 93.1646 452.98
		CHANNELS 6 Xposition Yposition Zposition Zrotation Xrotation Yrotation 
		JOINT Spine
		{
			OFFSET 15.7357 0.0 0.0
			CHANNELS 6 Xposition Yposition Zposition Zrotation Xrotation Yrotation 
			JOINT Chest
			{
				OFFSET 8.98455 -0.406207 0.0
				CHANNELS 6 Xposition Yposition Zposition Zrotation Xrotation Yrotation 
				JOINT Neck
				{
					OFFSET 16.3773 0.0 0.0
					CHANNELS 6 Xposition Yposition Zposition Zrotation Xrotation Yrotation 
					JOINT Head
					{
						OFFSET 6.45672 0.0 0.0
						CHANNELS 6 Xposition Yposition Zposition Zrotation Xrotation Yrotation 
						End Site
						{
							OFFSET 0.0 0.0 0.0
						}
					}
				}
				JOINT Shoulder_L
				{
					OFFSET 12.9942 -0.242716 4.98039
					CHANNELS 6 Xposition Yposition Zposition Zrotation Xrotation Yrotation 
					JOINT UpperArm_L
					{
						OFFSET 5.34809 0.0 0.0
						CHANNELS 6 Xposition Yposition Zposition Zrotation Xrotation Yrotation 
						JOINT LowerArm_L
						{
							OFFSET 24.3286 1.87007e-05 0.0
							CHANNELS 6 Xposition Yposition Zposition Zrotation Xrotation Yrotation 
							JOINT Hand_L
							{
								OFFSET 22.2916 0.0 0.0
								CHANNELS 6 Xposition Yposition Zposition Zrotation Xrotation Yrotation 
								End Site
								{
									OFFSET 0.0 0.0 0.0
								}
							}
						}
					}
				}
				JOINT Shoulder_R
				{
					OFFSET 12.9945 -0.242716 -4.98039
					CHANNELS 6 Xposition Yposition Zposition Zrotation Xrotation Yrotation 
					JOINT UpperArm_R
					{
						OFFSET -5.34813 0.0 0.0
						CHANNELS 6 Xposition Yposition Zposition Zrotation Xrotation Yrotation 
						JOINT LowerArm_R
						{
							OFFSET -24.3289 0.000322201 0.0
							CHANNELS 6 Xposition Yposition Zposition Zrotation Xrotation Yrotation 
							JOINT Hand_R
							{
								OFFSET -22.2915 -0.000108084 0.0
								CHANNELS 6 Xposition Yposition Zposition Zrotation Xrotation Yrotation 
								End Site
								{
									OFFSET 0.0 0.0 0.0
								}
							}
						}
					}
				}
			}
		}
		JOINT UpperLeg_L
		{
			OFFSET -2.19248 -6.46944 0.0
			CHANNELS 6 Xposition Yposition Zposition Zrotation Xrotation Yrotation 
			JOINT LowerLeg_L
			{
				OFFSET 39.0811 0.0 -1.23785e-05
				CHANNELS 6 Xposition Yposition Zposition Zrotation Xrotation Yrotation 
				JOINT Foot_L
				{
					OFFSET 40.9854 0.0 -1.26872e-05
					CHANNELS 6 Xposition Yposition Zposition Zrotation Xrotation Yrotation 
					JOINT Toes_L
					{
						OFFSET 11.7543 0.0 0.0
						CHANNELS 6 Xposition Yposition Zposition Zrotation Xrotation Yrotation 
						End Site
						{
							OFFSET 0.0 0.0 0.0
						}
					}
				}
			}
		}
		JOINT UpperLeg_R
		{
			OFFSET -2.19251 6.46944 0.0
			CHANNELS 6 Xposition Yposition Zposition Zrotation Xrotation Yrotation 
			JOINT LowerLeg_R
			{
				OFFSET -39.0811 -0.00228153 -0.0401928
				CHANNELS 6 Xposition Yposition Zposition Zrotation Xrotation Yrotation 
				JOINT Foot_R
				{
					OFFSET -40.9854 0.0 0.0
					CHANNELS 6 Xposition Yposition Zposition Zrotation Xrotation Yrotation 
					JOINT Toes_R
					{
						OFFSET -11.7543 0.0 0.0
						CHANNELS 6 Xposition Yposition Zposition Zrotation Xrotation Yrotation 
						End Site
						{
							OFFSET 0.0 0.0 0.0
						}
					}
				}
			}
		}
	}
}
MOTION
Frames:	4
Frame Time:	0.0333333
0.000000 0.000000 0.000000 0.000000 0.000000 -0.000000 -2.825470 92.707400 -1.786440 87.081800 4.355150 2.464260 15.735700 0.000005 -0.000001 85.702000 85.766900 -84.106900 8.984550 -0.406207 -0.000000 0.688535 -0.732738 3.192200 16.377300 -0.000001 -0.000001 2.774480 2.585270 -2.970980 6.456720 -0.000001 -0.000000 -10.329900 2.088230 -1.808750 12.994200 -0.242716 4.980390 -92.946300 9.196100 -72.149100 5.348090 -0.000007 -0.000001 -74.032700 17.942200 -1.443150 24.328600 0.000019 0.000005 14.373800 29.137600 -27.758500 22.291600 -0.000001 0.000005 -7.175780 5.140630 4.166140 12.994500 -0.242716 -4.980390 87.670300 6.959990 -71.441100 -5.348130 -0.000001 -0.000004 -70.694700 29.090300 -3.515160 -24.328900 0.000322 -0.000009 1.303120 3.505940 -20.418900 -22.291500 -0.000108 -0.000004 -3.340000 5.244040 1.589840 -2.192480 -6.469440 -0.000000 -176.279000 2.437520 -4.071100 39.081100 -0.000007 -0.000012 0.243962 -0.587378 22.555600 40.985400 -0.000006 -0.000013 1.553110 6.677550 -72.029700 11.754300 -0.000000 0.000003 -0.000832 0.180614 -9.250370 -2.192510 6.469440 -0.000001 -173.809000 14.259500 -177.996000 -39.081100 -0.002282 -0.040193 0.046922 -0.187395 13.094200 -40.985400 0.000008 0.000006 1.903240 2.555660 -68.919400 -11.754300 -0.000006 -0.000006 -0.009043 0.264011 -5.849220
0.000000 0.000000 0.000000 0.000000 0.000000 -0.000000 -2.879470 92.741600 -1.979360 87.065000 4.252110 2.283920 15.735700 0.000005 -0.000001 85.890500 85.687200 -84.276900 8.984550 -0.406207 -0.000000 0.849503 -0.715248 3.229990 16.377300 -0.000001 -0.000001 2.349930 2.525410 -2.789100 6.456720 -0.000001 -0.000000 -10.951000 2.118230 -1.884950 12.994200 -0.242716 4.980390 -92.957800 9.243530 -72.169100 5.348090 -0.000007 -0.000001 -74.222900 14.595300 -1.887580 24.328600 0.000019 0.000005 14.721400 30.049400 -27.686200 22.291600 -0.000001 0.000005 -7.772220 5.148050 3.990360 12.994500 -0.242716 -4.980390 87.755300 6.728280 -71.502200 -5.348130 -0.000001 -0.000004 -70.319600 28.658200 -4.015130 -24.328900 0.000322 -0.000009 1.588250 4.103690 -21.191300 -22.291500 -0.000108 -0.000004 -4.034060 5.248450 1.473470 -2.192480 -6.469440 -0.000000 -176.198000 2.206370 -4.334230 39.081100 -0.000007 -0.000012 0.240760 -0.582732 22.448700 40.985400 -0.000006 -0.000013 1.514690 6.790670 -71.857800 11.754300 -0.000000 0.000003 -0.000892 0.181482 -9.215120 -2.192510 6.469440 -0.000001 -173.724000 14.314500 -178.263000 -39.081100 -0.002282 -0.040193 0.044006 -0.176593 12.970000 -40.985400 0.000008 0.000006 1.823810 2.760920 -68.696800 -11.754300 -0.000006 -0.000006 -0.009426 0.266966 -5.728420
0.000000 0.000000 0.000000 0.000000 0.000000 -0.000000 -2.937120 92.780300 -2.186480 87.049100 4.225550 2.221490 15.735700 0.000005 -0.000001 85.936200 85.559500 -84.302800 8.984550 -0.406207 -0.000000 1.105220 -0.724015 3.271130 16.377300 -0.000001 -0.000001 1.787120 2.427710 -2.634810 6.456720 -0.000001 -0.000000 -11.539800 2.009400 -1.782200 12.994200 -0.242716 4.980390 -92.952500 9.273780 -72.252700 5.348090 -0.000007 -0.000001 -74.381600 10.017200 -2.226370 24.328600 0.000019 0.000005 15.341900 30.389900 -28.472400 22.291600 -0.000001 0.000005 -8.479510 5.098690 5.143210 12.994500 -0.242716 -4.980390 87.865100 6.434890 -71.602000 -5.348130 -0.000001 -0.000004 -69.868800 27.227900 -4.396930 -24.328900 0.000322 -0.000009 1.988560 4.836970 -22.390100 -22.291500 -0.000108 -0.000004 -4.994550 5.255920 1.275430 -2.192480 -6.469440 -0.000000 -176.134000 2.087310 -4.467930 39.081100 -0.000007 -0.000012 0.238465 -0.581243 22.307200 40.985400 -0.000006 -0.000013 1.479440 6.901640 -71.676700 11.754300 -0.000000 0.000003 -0.000702 0.178713 -9.327630 -2.192510 6.469440 -0.000001 -173.683000 14.459600 -178.392000 -39.081100 -0.002282 -0.040193 0.039880 -0.160771 12.806600 -40.985400 0.000008 0.000006 1.680030 2.973150 -68.443600 -11.754300 -0.000006 -0.000006 -0.009400 0.266764 -5.736660
0.000000 0.000000 0.000000 0.000000 0.000000 -0.000000 -2.993530 92.812000 -2.379160 87.027500 4.159500 2.128800 15.735700 0.000005 -0.000001 86.264200 85.450300 -84.596000 8.984550 -0.406207 -0.000000 1.326270 -0.686299 3.341480 16.377300 -0.000001 -0.000001 1.240970 2.305400 -2.500180 6.456720 -0.000001 -0.000000 -12.073500 1.765380 -1.676870 12.994200 -0.242716 4.980390 -92.960100 9.296460 -72.250200 5.348090 -0.000007 -0.000001 -74.172400 5.688150 -2.798390 24.328600 0.000019 0.000005 15.619800 29.641400 -29.479300 22.291600 -0.000001 0.000005 -8.693500 5.058410 6.051320 12.994500 -0.242716 -4.980390 88.010800 6.028200 -71.699800 -5.348130 -0.000001 -0.000004 -69.341600 24.662500 -4.405800 -24.328900 0.000322 -0.000009 2.228520 4.942630 -24.317900 -22.291500 -0.000108 -0.000004 -5.729470 5.255590 1.285010 -2.192480 -6.469440 -0.000000 -176.070000 2.071260 -4.646350 39.081100 -0.000007 -0.000012 0.232647 -0.569828 22.209400 40.985400 -0.000006 -0.000013 1.415550 6.883620 -71.512900 11.754300 -0.000000 0.000003 -0.000690 0.178527 -9.335180 -2.192510 6.469440 -0.000001 -173.608000 14.572100 -178.538000 -39.081100 -0.002282 -0.040193 0.037747 -0.153563 12.630800 -40.985400 0.000008 0.000006 1.713700 3.160910 -68.241600 -11.754300 -0.000006 -0.000006 -0.009459 0.267219 -5.718090
